<svg xmlns="http://www.w3.org/2000/svg" xmlns:xlink="http://www.w3.org/1999/xlink" xmlns:lucid="lucid" width="880" height="540"><g transform="translate(-560 -70)" lucid:page-tab-id="0_0"><path d="M580 96c0-3.3 2.7-6 6-6h208c3.3 0 6 2.7 6 6v326.67c0 3.3-2.7 6-6 6H586c-3.3 0-6-2.7-6-6zM1000 106c0-3.3 2.7-6 6-6h408c3.3 0 6 2.7 6 6v448c0 3.3-2.7 6-6 6h-408c-3.3 0-6-2.7-6-6z" stroke="#5e5e5e" stroke-width="3" fill="#fff" fill-opacity="0"/><path d="M1090 429.6v58.15c0 6 13.44 10.92 30 10.92V429.6h-30z" stroke="#000" stroke-opacity="0" fill="#3999c6"/><path d="M1119.6 498.67h.4c16.56 0 30-4.9 30-10.92V429.6h-30.4v69.07z" stroke="#000" stroke-opacity="0" fill="#59b4d9"/><path d="M1150 429.6c0 6.03-13.44 10.92-30 10.92-16.56 0-30-4.9-30-10.92 0-6.04 13.44-10.93 30-10.93 16.56 0 30 4.9 30 10.93" stroke="#000" stroke-opacity="0" fill="#fff"/><path d="M1143.87 428.97c0 3.98-10.7 7.2-23.87 7.2-13.18 0-23.87-3.22-23.87-7.2s10.7-7.22 23.87-7.22c13.17 0 23.87 3.24 23.87 7.22" stroke="#000" stroke-opacity="0" fill="#7fba00"/><path d="M1138.86 433.37c3.15-1.22 5-2.74 5-4.4 0-3.98-10.68-7.2-23.86-7.2-13.17 0-23.87 3.22-23.87 7.2 0 1.66 1.87 3.18 5.02 4.4 4.34-1.7 11.17-2.8 18.85-2.8 7.7 0 14.5 1.1 18.86 2.8" stroke="#000" stroke-opacity="0" fill="#b8d432"/><path d="M1139.4 476.73c-1.6 1.36-3.78 2.03-6.62 2.03h-9.42v-24.74h8.94c2.8 0 4.97.52 6.46 1.6 1.4 1 2.1 2.4 2.1 4.2 0 1.43-.53 2.64-1.58 3.73-.87.86-1.92 1.48-3.23 1.85v.05c1.75.23 3.2.9 4.23 2.03 1 1.06 1.53 2.38 1.53 3.88 0 2.28-.82 4.04-2.4 5.37m-22.98-1.46c-2.35 2.33-5.54 3.5-9.5 3.5h-8.73V454h8.7c8.74 0 13.1 4 13.1 12.05 0 3.83-1.18 6.93-3.58 9.2" stroke="#000" stroke-opacity="0" fill="#fff"/><path d="M1106.44 458.54h-2.73v15.7h2.77c2.43 0 4.3-.77 5.7-2.23 1.33-1.45 2-3.4 2-5.86 0-2.32-.67-4.15-1.97-5.5-1.36-1.4-3.28-2.1-5.76-2.1" stroke="#000" stroke-opacity="0" fill="#3999c6"/><path d="M1134 463.15c.66-.6 1-1.35 1-2.3 0-1.83-1.34-2.74-4.04-2.74h-2.1v5.87h2.47c1.12 0 2.03-.28 2.66-.82M1134.9 468.97c-.73-.55-1.72-.86-3-.86h-3.03v6.54h3c1.28 0 2.3-.3 3.06-.92.7-.6 1.06-1.4 1.06-2.44 0-.98-.37-1.76-1.1-2.3" stroke="#000" stroke-opacity="0" fill="#59b4d9"/><use xlink:href="#a" transform="matrix(1,0,0,1,1060,507.66666666666674) translate(20.049999999999997 14.4)"/><path d="M720.07 554.6c0 3.07-2.06 5.4-4.7 5.4H670.6c-2.66 0-4.7-2.33-4.7-5.4v-79c0-3.06 2.04-5.4 4.7-5.4h44.74c2.65 0 4.7 2.34 4.7 5.4v79z" stroke="#000" stroke-opacity="0" fill="#3e3e3e"/><path d="M669.37 479.18h47.24v63.22h-47.23v-63.22z" stroke="#000" stroke-opacity="0" fill="#59b4d9"/><path d="M697.55 551.2c0 2.87-2.04 5.2-4.56 5.2-2.53 0-4.58-2.33-4.58-5.2 0-2.88 2.05-5.2 4.57-5.2 2.5 0 4.55 2.32 4.55 5.2" stroke="#000" stroke-opacity="0" fill="#fff"/><path d="M695.98 551.2c0 1.8-1.26 3.4-3 3.4-1.57 0-2.98-1.43-2.98-3.4s1.26-3.4 3-3.4c1.72 0 2.98 1.6 2.98 3.4" stroke="#000" stroke-opacity="0" fill="#b8d432"/><path d="M669.35 542.4v-63.22h35.92l3.15-8.98h-37.8c-2.67 0-4.7 2.34-4.7 5.4v79c0 3.07 2.03 5.4 4.7 5.4h5.83l6.3-17.6h-13.4z" stroke="#000" stroke-opacity="0" fill="#fff" fill-opacity=".15"/><path d="M701.02 475.23c0 .72-.48 1.26-1.1 1.26h-13.7c-.63 0-1.1-.55-1.1-1.27s.47-1.26 1.1-1.26h13.7c.62 0 1.1.54 1.1 1.26" stroke="#000" stroke-opacity="0" fill="#1e1e1e"/><path d="M701.02 475.23c0 .72-.48 1.26-1.1 1.26h-13.7c-.63 0-1.1-.55-1.1-1.27s.47-1.26 1.1-1.26h13.7c.62 0 1.1.54 1.1 1.26" stroke="#000" stroke-opacity="0" fill="#fff"/><path d="M674.25 528.2h9.45V539h-9.45v-10.8zM687.95 520.13h9.45V539h-9.45v-18.87zM701.65 512.05h9.45V539h-9.45v-26.95zM706.68 482.77h-28c-2.55 0-4.43 2.35-4.43 5.02v15.45c0 2.86 2.06 5.02 4.42 5.02h5.5v6.65l5.8-6.65h16.7c2.55 0 4.43-2.32 4.43-5.02V487.8c0-2.68-1.88-5.03-4.42-5.03z" stroke="#000" stroke-opacity="0" fill="#fff" fill-opacity=".75"/><path d="M671.12 470h43.16c.64 0 .95.36.95 1.08v87.7c0 .73-.3 1.1-.95 1.1h-43.16c-.63 0-.95-.37-.95-1.1v-87.7c0-.72.32-1.08.95-1.08z" stroke="#000" stroke-opacity="0" stroke-width="0" fill-opacity="0"/><path d="M666.96 475.1h52.2c.6 0 .9.4.9 1.13v77.27c0 .7-.3 1.1-.9 1.1h-52.2c-.6 0-.9-.4-.9-1.1v-77.27c0-.72.3-1.12.9-1.12z" stroke="#000" stroke-opacity="0" stroke-width="0" fill-opacity="0"/><use xlink:href="#b" transform="matrix(1,0,0,1,635.9051724137933,569) translate(8.049999999999997 14.4)"/><use xlink:href="#c" transform="matrix(1,0,0,1,635.9051724137933,569) translate(74.95 14.4)"/><path d="M1120 221v33c0 3.3 2.7 6 6 6h58c3.3 0 6 2.7 6 6v186.67c0 3.3-2.7 6-6 6h-15.5" stroke="#5e5e5e" stroke-width="2" fill="none"/><path d="M1121 221.03h-2V220h2z" fill="#5e5e5e"/><path d="M1153.24 458.67l14.26-4.64v9.27z" stroke="#5e5e5e" stroke-width="2" fill="#5e5e5e"/><g stroke="#000" stroke-opacity="0"><path d="M824.9 322.27c.45 0 1.1.17 1.6.17 8.9 0 16.05-10.05 16.05-22.53.12-7.27-2.37-14.03-6.5-18.2 1.22-2.6 1.85-5.7 1.85-9 0-9.37-5.5-17-12.17-17h-.97c-2.4-6.23-6.3-9.7-11.07-9.7-7.52 0-13.4 8.5-13.4 19.4v47.85c0 10.92 5.88 19.42 13.4 19.42 5.02 0 9.03-3.82 11.2-10.4z" fill="#59b4d9"/><path d="M807.57 258.16c5.16 0 9.15 3.62 11.67 10.36h1c7.14 0 12.9 8.13 12.9 18.07 0 3.4-.63 6.73-1.9 9.5 4.4 4.32 7.2 11.62 7.2 19.4 2.6-4.16 4.23-9.52 4.23-15.56 0-7.3-2.52-14.04-6.64-18.2 1.26-2.65 1.9-5.78 1.9-9.05 0-9.4-5.55-16.97-12.18-16.97h-1c-2.4-6.25-6.27-9.73-11.05-9.73-6.4 0-11.63 6.05-13.02 14.53 2.02-1.53 4.37-2.37 6.9-2.37z" fill="#fff" fill-opacity=".2"/><path d="M787.22 292.68l8.2 11.96h-4.46L780 290.2l10.92-14.44h4.46l-8.16 11.9h14.53v5.02h-14.53z" fill="#804998"/><path d="M814.58 287.72l-8.2-11.96h4.46l10.96 14.44-10.9 14.44h-4.47l8.15-11.9h-14.53v-5.02h14.53z" fill="#fff"/></g><path d="M1079 319.33h-13.5" stroke="#5e5e5e" stroke-width="2" fill="none"/><path d="M1080 320.33h-1.03v-2h1.03z" fill="#5e5e5e"/><path d="M1050.24 319.33l14.26-4.63v9.27z" stroke="#5e5e5e" stroke-width="2" fill="#5e5e5e"/><path d="M1379.6 141c.6-.68.48-1.8 0-2.52l-2.88-3.32-12.94-14.64c-.6-.68-1.44-.68-2.04 0-.6.68-.72 1.8 0 2.52l13.54 15.44c.6.72.6 1.84 0 2.52l-13.77 16.04c-.6.68-.6 1.8 0 2.48.6.72 1.56.56 2.04 0l12.82-14.76.12-.12 3.12-3.64zM1320.4 141c-.6-.68-.48-1.8 0-2.52l2.88-3.32 12.94-14.64c.6-.68 1.44-.68 2.04 0 .6.68.72 1.8 0 2.52l-13.3 15.44c-.6.72-.6 1.84 0 2.52l13.53 16.04c.6.68.6 1.8 0 2.48-.6.72-1.56.56-2.04 0l-13.05-14.6-.12-.16-2.88-3.76z" stroke="#000" stroke-opacity="0" fill="#3999c6"/><path d="M1341.85 139.75c0 2.64-1.9 4.6-3.95 4.6-2.04 0-4.2-2.23-4.2-4.6 0-2.38 1.68-4.6 4.2-4.6 2.4 0 3.95 2.22 3.95 4.6zM1353.95 139.75c0 2.64-1.9 4.6-3.95 4.6-2.03 0-4.2-2.23-4.2-4.6 0-2.38 1.92-4.6 4.2-4.6 2.28 0 3.95 2.22 3.95 4.6zM1366.18 139.75c0 2.53-1.78 4.6-3.96 4.6-2.18 0-3.95-2.07-3.95-4.6 0-2.54 1.77-4.6 3.95-4.6s3.96 2.06 3.96 4.6z" stroke="#000" stroke-opacity="0" fill="#0072c6"/><path d="M1336.92 120.84h26.3l16.3 18.95-16.82 19.56h-25.54l-16.64-19.38z" stroke="#000" stroke-opacity="0" stroke-width="0" fill-opacity="0"/><use xlink:href="#d" transform="matrix(1,0,0,1,1290,169) translate(32.225 14.4)"/><use xlink:href="#e" transform="matrix(1,0,0,1,1290,169) translate(27.025 36)"/><path d="M1379.6 257c.6-.68.48-1.8 0-2.52l-2.88-3.32-12.94-14.64c-.6-.68-1.44-.68-2.04 0-.6.68-.72 1.8 0 2.52l13.54 15.44c.6.72.6 1.84 0 2.52l-13.77 16.04c-.6.68-.6 1.8 0 2.48.6.72 1.56.56 2.04 0l12.82-14.76.12-.12 3.12-3.64zM1320.4 257c-.6-.68-.48-1.8 0-2.52l2.88-3.32 12.94-14.64c.6-.68 1.44-.68 2.04 0 .6.68.72 1.8 0 2.52l-13.3 15.44c-.6.72-.6 1.84 0 2.52l13.53 16.04c.6.68.6 1.8 0 2.48-.6.72-1.56.56-2.04 0l-13.05-14.6-.12-.16-2.88-3.76z" stroke="#000" stroke-opacity="0" fill="#3999c6"/><path d="M1341.85 255.75c0 2.64-1.9 4.6-3.95 4.6-2.04 0-4.2-2.23-4.2-4.6 0-2.38 1.68-4.6 4.2-4.6 2.4 0 3.95 2.22 3.95 4.6zM1353.95 255.75c0 2.64-1.9 4.6-3.95 4.6-2.03 0-4.2-2.23-4.2-4.6 0-2.38 1.92-4.6 4.2-4.6 2.28 0 3.95 2.22 3.95 4.6zM1366.18 255.75c0 2.53-1.78 4.6-3.96 4.6-2.18 0-3.95-2.07-3.95-4.6 0-2.54 1.77-4.6 3.95-4.6s3.96 2.06 3.96 4.6z" stroke="#000" stroke-opacity="0" fill="#0072c6"/><path d="M1336.92 236.84h26.3l16.3 18.95-16.82 19.56h-25.54l-16.64-19.38z" stroke="#000" stroke-opacity="0" stroke-width="0" fill-opacity="0"/><use xlink:href="#f" transform="matrix(1,0,0,1,1290,285) translate(9.599999999999994 14.4)"/><use xlink:href="#e" transform="matrix(1,0,0,1,1290,285) translate(27.025 36)"/><path d="M1379.6 370.33c.6-.68.48-1.8 0-2.52l-2.88-3.3-12.94-14.65c-.6-.68-1.44-.68-2.04 0-.6.68-.72 1.8 0 2.52l13.54 15.44c.6.73.6 1.85 0 2.53l-13.77 16.04c-.6.68-.6 1.8 0 2.48.6.72 1.56.56 2.04 0l12.82-14.76.12-.13 3.12-3.64zM1320.4 370.33c-.6-.68-.48-1.8 0-2.52l2.88-3.3 12.94-14.65c.6-.68 1.44-.68 2.04 0 .6.68.72 1.8 0 2.52l-13.3 15.44c-.6.73-.6 1.85 0 2.53l13.53 16.04c.6.68.6 1.8 0 2.48-.6.72-1.56.56-2.04 0l-13.05-14.6-.12-.16-2.88-3.77z" stroke="#000" stroke-opacity="0" fill="#3999c6"/><path d="M1341.85 369.08c0 2.65-1.9 4.6-3.95 4.6-2.04 0-4.2-2.23-4.2-4.6 0-2.37 1.68-4.6 4.2-4.6 2.4 0 3.95 2.23 3.95 4.6zM1353.95 369.08c0 2.65-1.9 4.6-3.95 4.6-2.03 0-4.2-2.23-4.2-4.6 0-2.37 1.92-4.6 4.2-4.6 2.28 0 3.95 2.23 3.95 4.6zM1366.18 369.08c0 2.54-1.78 4.6-3.96 4.6-2.18 0-3.95-2.06-3.95-4.6 0-2.54 1.77-4.6 3.95-4.6s3.96 2.06 3.96 4.6z" stroke="#000" stroke-opacity="0" fill="#0072c6"/><path d="M1336.92 350.17h26.3l16.3 18.95-16.82 19.57h-25.54l-16.64-19.38z" stroke="#000" stroke-opacity="0" stroke-width="0" fill-opacity="0"/><use xlink:href="#g" transform="matrix(1,0,0,1,1290,398.33333333333337) translate(25.099999999999994 14.4)"/><use xlink:href="#e" transform="matrix(1,0,0,1,1290,398.33333333333337) translate(27.025 36)"/><path d="M1120 417.67v-49.83" stroke="#5e5e5e" stroke-width="2" fill="none"/><path d="M1121 418.75l-1-.08-1 .03v-1.06h2z" fill="#5e5e5e"/><path d="M1120 352.57l4.64 14.27h-9.28z" stroke="#5e5e5e" stroke-width="2" fill="#5e5e5e"/><path d="M1178.5 190h55.54c3.3 0 6-2.7 6-6v-38c0-3.3 2.7-6 6-6h73.04" stroke="#5e5e5e" stroke-width="2" fill="none"/><path d="M1163.24 190l14.26-4.64v9.28z" stroke="#5e5e5e" stroke-width="2" fill="#5e5e5e"/><path d="M1320 139.75l.4 1.25h-1.35v-2h1.2z" fill="#5e5e5e"/><path d="M1319.08 256h-73.04c-3.3 0-6-2.7-6-6v-54c0-3.3-2.7-6-6-6h-55.54" stroke="#5e5e5e" stroke-width="2" fill="none"/><path d="M1320 255.75l.4 1.25h-1.35v-2h1.2z" fill="#5e5e5e"/><path d="M1163.24 190l14.26-4.64v9.28z" stroke="#5e5e5e" stroke-width="2" fill="#5e5e5e"/><path d="M1319.08 369.33h-73.04c-3.3 0-6-2.68-6-6V196c0-3.3-2.7-6-6-6h-55.54" stroke="#5e5e5e" stroke-width="2" fill="none"/><path d="M1320 369.1l.4 1.23h-1.35v-2h1.2z" fill="#5e5e5e"/><path d="M1163.24 190l14.26-4.64v9.28z" stroke="#5e5e5e" stroke-width="2" fill="#5e5e5e"/><path d="M1379.6 479.67c.6-.68.48-1.8 0-2.52l-2.88-3.32-12.94-14.64c-.6-.7-1.44-.7-2.04 0-.6.67-.72 1.8 0 2.5l13.54 15.45c.6.72.6 1.84 0 2.52l-13.77 16.04c-.6.7-.6 1.8 0 2.5s1.56.55 2.04 0l12.82-14.77.12-.12 3.12-3.63zM1320.4 479.67c-.6-.68-.48-1.8 0-2.52l2.88-3.32 12.94-14.64c.6-.7 1.44-.7 2.04 0 .6.67.72 1.8 0 2.5l-13.3 15.45c-.6.72-.6 1.84 0 2.52l13.53 16.04c.6.7.6 1.8 0 2.5s-1.56.55-2.04 0l-13.05-14.6-.12-.17-2.88-3.76z" stroke="#000" stroke-opacity="0" fill="#3999c6"/><path d="M1341.85 478.4c0 2.66-1.9 4.6-3.95 4.6-2.04 0-4.2-2.2-4.2-4.6 0-2.36 1.68-4.58 4.2-4.58 2.4 0 3.95 2.22 3.95 4.6zM1353.95 478.4c0 2.66-1.9 4.6-3.95 4.6-2.03 0-4.2-2.2-4.2-4.6 0-2.36 1.92-4.58 4.2-4.58 2.28 0 3.95 2.22 3.95 4.6zM1366.18 478.4c0 2.55-1.78 4.6-3.96 4.6-2.18 0-3.95-2.05-3.95-4.6 0-2.52 1.77-4.58 3.95-4.58s3.96 2.06 3.96 4.6z" stroke="#000" stroke-opacity="0" fill="#0072c6"/><path d="M1336.92 459.5h26.3l16.3 18.96-16.82 19.56h-25.54l-16.64-19.37z" stroke="#000" stroke-opacity="0" stroke-width="0" fill-opacity="0"/><use xlink:href="#h" transform="matrix(1,0,0,1,1290,507.66666666666674) translate(17.549999999999997 14.4)"/><use xlink:href="#i" transform="matrix(1,0,0,1,1290,507.66666666666674) translate(23.549999999999997 36)"/><path d="M1319.08 478.67h-73.04c-3.3 0-6-2.7-6-6V196c0-3.3-2.7-6-6-6h-55.54" stroke="#5e5e5e" stroke-width="2" fill="none"/><path d="M1320 478.42l.4 1.25h-1.35v-2h1.2z" fill="#5e5e5e"/><path d="M1163.24 190l14.26-4.64v9.28z" stroke="#5e5e5e" stroke-width="2" fill="#5e5e5e"/><path d="M662.67 130.93v58.16c0 6 13.44 10.9 30 10.9v-69.07h-30z" stroke="#000" stroke-opacity="0" fill="#3999c6"/><path d="M692.26 200h.42c16.54 0 30-4.9 30-10.9v-58.17h-30.42V200z" stroke="#000" stroke-opacity="0" fill="#59b4d9"/><path d="M722.67 130.93c0 6.03-13.44 10.93-30 10.93-16.56 0-30-4.9-30-10.93 0-6.03 13.44-10.93 30-10.93 16.56 0 30 4.9 30 10.93" stroke="#000" stroke-opacity="0" fill="#fff"/><path d="M716.53 130.3c0 3.98-10.7 7.2-23.86 7.2-13.18 0-23.87-3.22-23.87-7.2s10.7-7.2 23.87-7.2c13.17 0 23.86 3.22 23.86 7.2" stroke="#000" stroke-opacity="0" fill="#7fba00"/><path d="M711.52 134.7c3.15-1.2 5-2.74 5-4.4 0-3.98-10.68-7.2-23.85-7.2-13.18 0-23.87 3.22-23.87 7.2 0 1.66 1.86 3.2 5 4.4 4.36-1.7 11.18-2.8 18.87-2.8 7.68 0 14.5 1.1 18.85 2.8" stroke="#000" stroke-opacity="0" fill="#b8d432"/><path d="M712.08 178.07c-1.62 1.36-3.8 2.02-6.63 2.02h-9.42v-24.74h8.94c2.8 0 4.97.52 6.45 1.58 1.4 1.02 2.1 2.43 2.1 4.2 0 1.44-.53 2.65-1.57 3.74-.88.87-1.92 1.5-3.23 1.86v.05c1.74.2 3.18.88 4.23 2 1 1.08 1.53 2.4 1.53 3.9 0 2.27-.83 4.03-2.4 5.37m-23-1.46c-2.35 2.33-5.53 3.5-9.5 3.5h-8.72v-24.74h8.72c8.72 0 13.1 4 13.1 12.04 0 3.84-1.2 6.93-3.6 9.2" stroke="#000" stroke-opacity="0" fill="#fff"/><path d="M679.1 159.87h-2.72v15.7h2.76c2.43 0 4.3-.76 5.7-2.22 1.33-1.46 2-3.4 2-5.88 0-2.32-.67-4.14-1.98-5.5-1.36-1.4-3.27-2.1-5.75-2.1" stroke="#000" stroke-opacity="0" fill="#3999c6"/><path d="M706.66 164.48c.67-.58 1-1.34 1-2.3 0-1.82-1.34-2.74-4.03-2.74h-2.1v5.86H704c1.12 0 2.02-.28 2.66-.82M707.57 170.3c-.73-.55-1.72-.85-3-.85h-3.03v6.52h3c1.28 0 2.3-.3 3.06-.9.7-.63 1.06-1.42 1.06-2.45 0-.98-.36-1.77-1.1-2.32" stroke="#000" stroke-opacity="0" fill="#59b4d9"/><use xlink:href="#j" transform="matrix(1,0,0,1,632.6666666666667,209) translate(10.100000000000001 14.4)"/><use xlink:href="#k" transform="matrix(1,0,0,1,632.6666666666667,209) translate(84.94999999999999 14.4)"/><path d="M939 320h-42.72c-3.32 0-6-2.7-6-6v-18.67c0-3.3-2.7-6-6-6h-25.23" stroke="#5e5e5e" stroke-width="2" fill="none"/><path d="M940 321h-1.03v-2H940z" fill="#5e5e5e"/><path d="M843.8 289.33l14.25-4.63v9.27z" stroke="#5e5e5e" stroke-width="2" fill="#5e5e5e"/><path d="M1080 346.52c0 1.55 1.44 2.8 3.2 2.8h73.6c1.76 0 3.2-1.25 3.2-2.8v-44.1h-80v44.1z" stroke="#000" stroke-opacity="0" fill="#59b4d9"/><path d="M1156.8 289.33h-73.6c-1.76 0-3.2 1.27-3.2 2.83v14.95h80v-14.94c0-1.56-1.44-2.83-3.2-2.83" stroke="#000" stroke-opacity="0" fill="#a0a1a2"/><path d="M1083.22 289.33c-1.74 0-3.2 1.26-3.2 2.82v54.36c0 1.57 1.46 2.83 3.2 2.83h3.5l63.07-60h-66.58z" stroke="#000" stroke-opacity="0" fill="#fff" fill-opacity=".2"/><path d="M1100.57 296.06h53.87v5.55h-53.87v-5.54z" stroke="#000" stroke-opacity="0" fill="#fff"/><path d="M1098.1 298.74c0 3.8-3.5 6.86-7.8 6.86-4.32 0-7.8-3.07-7.8-6.86 0-3.8 3.48-6.87 7.8-6.87 4.3 0 7.8 3.08 7.8 6.87" stroke="#000" stroke-opacity="0" fill="#59b4d9"/><path d="M1089.46 299.5l3.55 3.3h-1.92l-4.73-3.97 4.72-3.96h1.92l-3.54 3.26h8.63v1.38h-8.64zM1107.88 334.47c0 .8-.33 1.46-.97 1.97-.64.52-1.5.77-2.56.77-.95 0-1.76-.25-2.42-.77-.66-.52-1-1.18-1-1.96 0-.8.34-1.44 1-1.94.66-.5 1.5-.76 2.5-.76s1.8.26 2.47.77c.65.52.98 1.17.98 1.93zM1122.13 334.47c0 .8-.33 1.46-.98 1.97-.64.52-1.5.77-2.56.77-.97 0-1.77-.25-2.43-.77-.66-.52-1-1.18-1-1.96 0-.8.34-1.44 1-1.94.66-.5 1.5-.76 2.5-.76.98 0 1.8.26 2.46.77.66.52 1 1.17 1 1.93zM1136.37 334.47c0 .8-.32 1.46-.97 1.97-.65.52-1.5.77-2.57.77-.95 0-1.76-.25-2.42-.77-.65-.52-.98-1.18-.98-1.96 0-.8.33-1.44 1-1.94.65-.5 1.5-.76 2.5-.76.98 0 1.8.26 2.46.77.66.52 1 1.17 1 1.93z" stroke="#000" stroke-opacity="0" fill="#fff"/><use xlink:href="#l" transform="matrix(1,0,0,1,1050,358.33333333333337) translate(9.074999999999996 14.4)"/><use xlink:href="#m" transform="matrix(1,0,0,1,1050,358.33333333333337) translate(78.025 14.4)"/><path d="M940 260h96.23v120H940V260z" stroke="#000" stroke-opacity="0" fill="#7fba00"/><path d="M978.75 271.8h45.3v28.53h-45.3V271.8z" stroke="#000" stroke-opacity="0"/><path d="M1036.23 269.23H1047v20.6h-10.77v-20.6zM1036.23 298.6H1047v54.78h-10.77V298.6z" stroke="#000" stroke-opacity="0" fill="#fcd116"/><path d="M982.62 336.12h7.77v32.14h-7.78v-32.14zM970.07 336.12h7.77v32.14h-7.77v-32.14z" stroke="#000" stroke-opacity="0"/><path d="M975.02 349.68h-14.7v-61.1h19.73v5h-14.7v51.1h9.67v5z" stroke="#000" stroke-opacity="0" fill-opacity=".2"/><path d="M970 362.26H950.3V278.5h32.28v5.04h-27.24v73.7h14.7v5.02zM1012.1 356.35h-14.52v-41.52h11.34v-18.75h5.03v23.75h-11.34v31.45h9.5v5.07z" stroke="#000" stroke-opacity="0" fill-opacity=".2"/><path d="M987.88 317.86c0 3.22-2.6 5.84-5.82 5.84-3.2 0-5.82-2.62-5.82-5.84 0-3.22 2.6-5.83 5.82-5.83 3.2 0 5.82 2.6 5.82 5.83zM1011.43 337.62h10.35v29.68h-10.35v-29.68z" stroke="#000" stroke-opacity="0" fill="#e5e5e5"/><use xlink:href="#n" transform="matrix(1,0,0,1,910,389) translate(31.599999999999994 14.4)"/><use xlink:href="#o" transform="matrix(1,0,0,1,910,389) translate(119.45 14.4)"/><path d="M1080 217.2c0 1.53 1.44 2.8 3.2 2.8h73.6c1.76 0 3.2-1.27 3.2-2.8v-44.1h-80v44.1z" stroke="#000" stroke-opacity="0" fill="#59b4d9"/><path d="M1156.8 160h-73.6c-1.76 0-3.2 1.26-3.2 2.83v14.95h80v-14.95c0-1.57-1.44-2.83-3.2-2.83" stroke="#000" stroke-opacity="0" fill="#a0a1a2"/><path d="M1083.22 160c-1.74 0-3.2 1.26-3.2 2.82v54.36c0 1.56 1.46 2.82 3.2 2.82h3.5l63.07-60h-66.58z" stroke="#000" stroke-opacity="0" fill="#fff" fill-opacity=".2"/><path d="M1100.57 166.73h53.87v5.54h-53.87v-5.54z" stroke="#000" stroke-opacity="0" fill="#fff"/><path d="M1098.1 169.4c0 3.8-3.5 6.87-7.8 6.87-4.32 0-7.8-3.08-7.8-6.87 0-3.8 3.48-6.86 7.8-6.86 4.3 0 7.8 3.07 7.8 6.86" stroke="#000" stroke-opacity="0" fill="#59b4d9"/><path d="M1089.46 170.18l3.55 3.3h-1.92l-4.73-3.98 4.72-3.97h1.92l-3.54 3.27h8.63v1.38h-8.64zM1107.88 205.14c0 .8-.33 1.46-.97 1.97-.64.52-1.5.78-2.56.78-.95 0-1.76-.26-2.42-.8-.66-.5-1-1.16-1-1.94 0-.8.34-1.44 1-1.95.66-.5 1.5-.76 2.5-.76s1.8.26 2.47.77c.65.53.98 1.17.98 1.94zM1122.13 205.14c0 .8-.33 1.46-.98 1.97-.64.52-1.5.78-2.56.78-.97 0-1.77-.26-2.43-.8-.66-.5-1-1.16-1-1.94 0-.8.34-1.44 1-1.95.66-.5 1.5-.76 2.5-.76.98 0 1.8.26 2.46.77.66.53 1 1.17 1 1.94zM1136.37 205.14c0 .8-.32 1.46-.97 1.97-.65.52-1.5.78-2.57.78-.95 0-1.76-.26-2.42-.8-.65-.5-.98-1.16-.98-1.94 0-.8.33-1.44 1-1.95.65-.5 1.5-.76 2.5-.76.98 0 1.8.26 2.46.77.66.53 1 1.17 1 1.94z" stroke="#000" stroke-opacity="0" fill="#fff"/><use xlink:href="#p" transform="matrix(1,0,0,1,1050,229) translate(16.549999999999997 14.4)"/><use xlink:href="#q" transform="matrix(1,0,0,1,1050,229) translate(77.55 14.4)"/><path d="M779.66 289.33h-22c-3.3 0-6 2.7-6 6v2c0 3.32-2.7 6-6 6h-4.5" stroke="#5e5e5e" stroke-width="2" fill="none"/><path d="M780 290.2l.1.13h-.47v-2h1.78z" fill="#5e5e5e"/><path d="M725.9 303.33l14.27-4.63v9.27z" stroke="#5e5e5e" stroke-width="2" fill="#5e5e5e"/><path d="M692.67 201v42.38" stroke="#5e5e5e" stroke-width="2" fill="none"/><path d="M693.67 201.03h-2v-1.06l.6.02H692.66l1-.08z" fill="#5e5e5e"/><path d="M692.67 258.65l-4.64-14.27h9.27z" stroke="#5e5e5e" stroke-width="2" fill="#5e5e5e"/><path d="M691.33 365.17v86.33" stroke="#5e5e5e" stroke-width="2" fill="none"/><path d="M691.33 349.9l4.64 14.27h-9.27zM691.33 466.76l-4.63-14.26h9.27z" stroke="#5e5e5e" stroke-width="2" fill="#5e5e5e"/><path d="M713.33 270.3c-18.86-2.07-22-10.3-22-10.3s-4.26 10.83-31.33 10.83v44.38c0 5.38 2.95 10.4 7.02 14.83 9.2 9.96 24.3 16.64 24.3 16.64s31.35-13.96 31.35-31.46v-44.37c-3.5 0-6.58-.17-9.34-.52z" stroke="#000" stroke-opacity="0" stroke-width="3" fill="#0072c6"/><path d="M699.08 288.7l14.24-18.34C694.5 268.2 691.35 260 691.35 260s-4.27 10.85-31.35 10.85v44.38c0 5.32 2.93 10.36 7.04 14.77l10.5-13.58 21.54-27.72z" stroke="#000" stroke-opacity="0" stroke-width="3" fill="#fff" fill-opacity=".2"/><path d="M672.48 312h.03v-26l34.42-.05-34.44.05z" stroke="#000" stroke-opacity="0" stroke-width="3" fill="#59b4d9"/><path d="M710.9 282.53h-39.4c-1.33 0-2.4 1.2-2.4 2.58v27.8c0 1.37 1.07 2.58 2.4 2.58h14.68c1.33 5.16-.45 5.9-8.4 5.95h-.14v2.7h27.38v-2.7h-.17c-7.92-.04-9.7-.8-8.36-5.95h14.4c1.33 0 2.66-1.2 2.66-2.58v-27.8c0-1.36-1.33-2.57-2.67-2.57zm-.8 29.46h-37.6v-26h37.6v26z" stroke="#000" stroke-opacity="0" stroke-width="3" fill="#fff" fill-opacity=".95"/><path d="M691.36 298.2c-.04 0-.08 0-.12-.03l-7.83-4.57c-.06-.05-.1-.13-.1-.22 0-.08.04-.16.1-.2l7.8-4.55c.07-.04.15-.04.23 0l7.83 4.58c.06.05.1.14.1.22 0 .1-.04.17-.1.2l-7.78 4.56-.12.03" stroke="#000" stroke-opacity="0" stroke-width="3" fill="#fff" fill-opacity=".95"/><path d="M690.24 309.34c-.05 0-.1 0-.13-.02l-7.8-4.58c-.07-.04-.1-.1-.1-.2v-9.17c0-.08.04-.17.1-.2.1-.05.17-.05.25 0l7.8 4.57c.08.04.12.1.12.2v9.16c0 .1-.05.17-.12.22l-.1.02" stroke="#000" stroke-opacity="0" stroke-width="3" fill="#fff" fill-opacity=".8"/><path d="M692.45 309.34c-.05 0-.1 0-.13-.02-.07-.06-.1-.13-.1-.22V300c0-.08.03-.17.1-.2l7.8-4.58c.08-.04.17-.04.24 0 .08.04.12.13.12.2v9.1c0 .1-.04.18-.12.22l-7.8 4.58-.1.02" stroke="#000" stroke-opacity="0" stroke-width="3" fill="#fff" fill-opacity=".6"/><g><use xlink:href="#r" transform="matrix(1,0,0,1,630,355.66666666666674) translate(26.575000000000003 14.4)"/><use xlink:href="#s" transform="matrix(1,0,0,1,630,355.66666666666674) translate(4.549999999999997 36)"/></g><defs><path fill="#fff" d="M240 0l2-218c-23 76-54 145-80 218h-23L58-218 59 0H30v-248h44l77 211c21-75 51-140 76-211h43V0h-30" id="t"/><path fill="#fff" d="M100-194c62-1 85 37 85 99 1 63-27 99-86 99S16-35 15-95c0-66 28-99 85-99zM99-20c44 1 53-31 53-75 0-43-8-75-51-75s-53 32-53 75 10 74 51 75" id="u"/><path fill="#fff" d="M117-194c89-4 53 116 60 194h-32v-121c0-31-8-49-39-48C34-167 62-67 57 0H25l-1-190h30c1 10-1 24 2 32 11-22 29-35 61-36" id="v"/><path fill="#fff" d="M177-190C167-65 218 103 67 71c-23-6-38-20-44-43l32-5c15 47 100 32 89-28v-30C133-14 115 1 83 1 29 1 15-40 15-95c0-56 16-97 71-98 29-1 48 16 59 35 1-10 0-23 2-32h30zM94-22c36 0 50-32 50-73 0-42-14-75-50-75-39 0-46 34-46 75s6 73 46 73" id="w"/><path fill="#fff" d="M30-248c118-7 216 8 213 122C240-48 200 0 122 0H30v-248zM63-27c89 8 146-16 146-99s-60-101-146-95v194" id="x"/><path fill="#fff" d="M160-131c35 5 61 23 61 61C221 17 115-2 30 0v-248c76 3 177-17 177 60 0 33-19 50-47 57zm-97-11c50-1 110 9 110-42 0-47-63-36-110-37v79zm0 115c55-2 124 14 124-45 0-56-70-42-124-44v89" id="y"/><g id="a"><use transform="matrix(0.05,0,0,0.05,0,0)" xlink:href="#t"/><use transform="matrix(0.05,0,0,0.05,14.950000000000001,0)" xlink:href="#u"/><use transform="matrix(0.05,0,0,0.05,24.950000000000003,0)" xlink:href="#v"/><use transform="matrix(0.05,0,0,0.05,34.95,0)" xlink:href="#w"/><use transform="matrix(0.05,0,0,0.05,44.95,0)" xlink:href="#u"/><use transform="matrix(0.05,0,0,0.05,54.95,0)" xlink:href="#x"/><use transform="matrix(0.05,0,0,0.05,67.9,0)" xlink:href="#y"/></g><path fill="#fff" d="M205 0l-28-72H64L36 0H1l101-248h38L239 0h-34zm-38-99l-47-123c-12 45-31 82-46 123h93" id="z"/><path fill="#fff" d="M85-194c31 0 48 13 60 33l-1-100h32l1 261h-30c-2-10 0-23-3-31C134-8 116 4 85 4 32 4 16-35 15-94c0-66 23-100 70-100zm9 24c-40 0-46 34-46 75 0 40 6 74 45 74 42 0 51-32 51-76 0-42-9-74-50-73" id="A"/><path fill="#fff" d="M114-163C36-179 61-72 57 0H25l-1-190h30c1 12-1 29 2 39 6-27 23-49 58-41v29" id="B"/><path fill="#fff" d="M24-231v-30h32v30H24zM24 0v-190h32V0H24" id="C"/><g id="b"><use transform="matrix(0.05,0,0,0.05,0,0)" xlink:href="#z"/><use transform="matrix(0.05,0,0,0.05,12,0)" xlink:href="#v"/><use transform="matrix(0.05,0,0,0.05,22,0)" xlink:href="#A"/><use transform="matrix(0.05,0,0,0.05,32,0)" xlink:href="#B"/><use transform="matrix(0.05,0,0,0.05,37.95,0)" xlink:href="#u"/><use transform="matrix(0.05,0,0,0.05,47.95,0)" xlink:href="#C"/><use transform="matrix(0.05,0,0,0.05,51.900000000000006,0)" xlink:href="#A"/></g><path fill="#fff" d="M115-194c55 1 70 41 70 98S169 2 115 4C84 4 66-9 55-30l1 105H24l-1-265h31l2 30c10-21 28-34 59-34zm-8 174c40 0 45-34 45-75s-6-73-45-74c-42 0-51 32-51 76 0 43 10 73 51 73" id="D"/><g id="c"><use transform="matrix(0.05,0,0,0.05,0,0)" xlink:href="#z"/><use transform="matrix(0.05,0,0,0.05,12,0)" xlink:href="#D"/><use transform="matrix(0.05,0,0,0.05,22,0)" xlink:href="#D"/></g><path fill="#fff" d="M266 0h-40l-56-210L115 0H75L2-248h35L96-30l15-64 43-154h32l59 218 59-218h35" id="E"/><path fill="#fff" d="M100-194c63 0 86 42 84 106H49c0 40 14 67 53 68 26 1 43-12 49-29l28 8c-11 28-37 45-77 45C44 4 14-33 15-96c1-61 26-98 85-98zm52 81c6-60-76-77-97-28-3 7-6 17-6 28h103" id="F"/><path fill="#fff" d="M106-169C34-169 62-67 57 0H25v-261h32l-1 103c12-21 28-36 61-36 89 0 53 116 60 194h-32v-121c2-32-8-49-39-48" id="G"/><path fill="#fff" d="M59-47c-2 24 18 29 38 22v24C64 9 27 4 27-40v-127H5v-23h24l9-43h21v43h35v23H59v120" id="H"/><g id="d"><use transform="matrix(0.05,0,0,0.05,0,0)" xlink:href="#E"/><use transform="matrix(0.05,0,0,0.05,16.599999999999998,0)" xlink:href="#F"/><use transform="matrix(0.05,0,0,0.05,26.599999999999994,0)" xlink:href="#C"/><use transform="matrix(0.05,0,0,0.05,30.549999999999997,0)" xlink:href="#w"/><use transform="matrix(0.05,0,0,0.05,40.55,0)" xlink:href="#G"/><use transform="matrix(0.05,0,0,0.05,50.55,0)" xlink:href="#H"/></g><path fill="#fff" d="M185-189c-5-48-123-54-124 2 14 75 158 14 163 119 3 78-121 87-175 55-17-10-28-26-33-46l33-7c5 56 141 63 141-1 0-78-155-14-162-118-5-82 145-84 179-34 5 7 8 16 11 25" id="I"/><path fill="#fff" d="M135-143c-3-34-86-38-87 0 15 53 115 12 119 90S17 21 10-45l28-5c4 36 97 45 98 0-10-56-113-15-118-90-4-57 82-63 122-42 12 7 21 19 24 35" id="J"/><g id="e"><use transform="matrix(0.05,0,0,0.05,0,0)" xlink:href="#I"/><use transform="matrix(0.05,0,0,0.05,12,0)" xlink:href="#F"/><use transform="matrix(0.05,0,0,0.05,22,0)" xlink:href="#v"/><use transform="matrix(0.05,0,0,0.05,32,0)" xlink:href="#J"/><use transform="matrix(0.05,0,0,0.05,41,0)" xlink:href="#u"/><use transform="matrix(0.05,0,0,0.05,51,0)" xlink:href="#B"/><use transform="matrix(0.05,0,0,0.05,56.95,0)" xlink:href="#J"/></g><path fill="#fff" d="M127-220V0H93v-220H8v-28h204v28h-85" id="K"/><path fill="#fff" d="M210-169c-67 3-38 105-44 169h-31v-121c0-29-5-50-35-48C34-165 62-65 56 0H25l-1-190h30c1 10-1 24 2 32 10-44 99-50 107 0 11-21 27-35 58-36 85-2 47 119 55 194h-31v-121c0-29-5-49-35-48" id="L"/><path fill="#fff" d="M141-36C126-15 110 5 73 4 37 3 15-17 15-53c-1-64 63-63 125-63 3-35-9-54-41-54-24 1-41 7-42 31l-33-3c5-37 33-52 76-52 45 0 72 20 72 64v82c-1 20 7 32 28 27v20c-31 9-61-2-59-35zM48-53c0 20 12 33 32 33 41-3 63-29 60-74-43 2-92-5-92 41" id="M"/><path fill="#fff" d="M84 4C-5 8 30-112 23-190h32v120c0 31 7 50 39 49 72-2 45-101 50-169h31l1 190h-30c-1-10 1-25-2-33-11 22-28 36-60 37" id="N"/><g id="f"><use transform="matrix(0.05,0,0,0.05,0,0)" xlink:href="#K"/><use transform="matrix(0.05,0,0,0.05,8.950000000000001,0)" xlink:href="#F"/><use transform="matrix(0.05,0,0,0.05,18.950000000000003,0)" xlink:href="#L"/><use transform="matrix(0.05,0,0,0.05,33.900000000000006,0)" xlink:href="#D"/><use transform="matrix(0.05,0,0,0.05,43.900000000000006,0)" xlink:href="#F"/><use transform="matrix(0.05,0,0,0.05,53.900000000000006,0)" xlink:href="#B"/><use transform="matrix(0.05,0,0,0.05,59.85,0)" xlink:href="#M"/><use transform="matrix(0.05,0,0,0.05,69.85000000000001,0)" xlink:href="#H"/><use transform="matrix(0.05,0,0,0.05,74.85000000000001,0)" xlink:href="#N"/><use transform="matrix(0.05,0,0,0.05,84.85000000000001,0)" xlink:href="#B"/><use transform="matrix(0.05,0,0,0.05,90.80000000000001,0)" xlink:href="#F"/></g><path fill="#fff" d="M197 0v-115H63V0H30v-248h33v105h134v-105h34V0h-34" id="O"/><path fill="#fff" d="M179-190L93 31C79 59 56 82 12 73V49c39 6 53-20 64-50L1-190h34L92-34l54-156h33" id="P"/><g id="g"><use transform="matrix(0.05,0,0,0.05,0,0)" xlink:href="#O"/><use transform="matrix(0.05,0,0,0.05,12.950000000000001,0)" xlink:href="#N"/><use transform="matrix(0.05,0,0,0.05,22.950000000000003,0)" xlink:href="#L"/><use transform="matrix(0.05,0,0,0.05,37.900000000000006,0)" xlink:href="#C"/><use transform="matrix(0.05,0,0,0.05,41.85000000000001,0)" xlink:href="#A"/><use transform="matrix(0.05,0,0,0.05,51.85,0)" xlink:href="#C"/><use transform="matrix(0.05,0,0,0.05,55.80000000000001,0)" xlink:href="#H"/><use transform="matrix(0.05,0,0,0.05,60.80000000000001,0)" xlink:href="#P"/></g><path fill="#fff" d="M30-248c87 1 191-15 191 75 0 78-77 80-158 76V0H30v-248zm33 125c57 0 124 11 124-50 0-59-68-47-124-48v98" id="Q"/><path fill="#fff" d="M24 0v-261h32V0H24" id="R"/><g id="h"><use transform="matrix(0.05,0,0,0.05,0,0)" xlink:href="#Q"/><use transform="matrix(0.05,0,0,0.05,12,0)" xlink:href="#u"/><use transform="matrix(0.05,0,0,0.05,22,0)" xlink:href="#D"/><use transform="matrix(0.05,0,0,0.05,32,0)" xlink:href="#N"/><use transform="matrix(0.05,0,0,0.05,42,0)" xlink:href="#R"/><use transform="matrix(0.05,0,0,0.05,45.95,0)" xlink:href="#M"/><use transform="matrix(0.05,0,0,0.05,55.95,0)" xlink:href="#H"/><use transform="matrix(0.05,0,0,0.05,60.95,0)" xlink:href="#C"/><use transform="matrix(0.05,0,0,0.05,64.9,0)" xlink:href="#u"/><use transform="matrix(0.05,0,0,0.05,74.9,0)" xlink:href="#v"/></g><path fill="#fff" d="M212-179c-10-28-35-45-73-45-59 0-87 40-87 99 0 60 29 101 89 101 43 0 62-24 78-52l27 14C228-24 195 4 139 4 59 4 22-46 18-125c-6-104 99-153 187-111 19 9 31 26 39 46" id="S"/><g id="i"><use transform="matrix(0.05,0,0,0.05,0,0)" xlink:href="#S"/><use transform="matrix(0.05,0,0,0.05,12.950000000000001,0)" xlink:href="#u"/><use transform="matrix(0.05,0,0,0.05,22.950000000000003,0)" xlink:href="#N"/><use transform="matrix(0.05,0,0,0.05,32.95,0)" xlink:href="#v"/><use transform="matrix(0.05,0,0,0.05,42.95,0)" xlink:href="#H"/><use transform="matrix(0.05,0,0,0.05,47.95,0)" xlink:href="#F"/><use transform="matrix(0.05,0,0,0.05,57.95,0)" xlink:href="#B"/><use transform="matrix(0.05,0,0,0.05,63.900000000000006,0)" xlink:href="#J"/></g><path fill="#fff" d="M63-220v92h138v28H63V0H30v-248h175v28H63" id="T"/><path fill="#fff" d="M115-194c53 0 69 39 70 98 0 66-23 100-70 100C84 3 66-7 56-30L54 0H23l1-261h32v101c10-23 28-34 59-34zm-8 174c40 0 45-34 45-75 0-40-5-75-45-74-42 0-51 32-51 76 0 43 10 73 51 73" id="U"/><g id="j"><use transform="matrix(0.05,0,0,0.05,0,0)" xlink:href="#T"/><use transform="matrix(0.05,0,0,0.05,10.950000000000001,0)" xlink:href="#C"/><use transform="matrix(0.05,0,0,0.05,14.9,0)" xlink:href="#B"/><use transform="matrix(0.05,0,0,0.05,20.85,0)" xlink:href="#F"/><use transform="matrix(0.05,0,0,0.05,30.85,0)" xlink:href="#U"/><use transform="matrix(0.05,0,0,0.05,40.85,0)" xlink:href="#M"/><use transform="matrix(0.05,0,0,0.05,50.85,0)" xlink:href="#J"/><use transform="matrix(0.05,0,0,0.05,59.85,0)" xlink:href="#F"/></g><g id="k"><use transform="matrix(0.05,0,0,0.05,0,0)" xlink:href="#x"/><use transform="matrix(0.05,0,0,0.05,12.950000000000001,0)" xlink:href="#y"/></g><path fill="#fff" d="M190 0L58-211 59 0H30v-248h39L202-35l-2-213h31V0h-41" id="V"/><path fill="#fff" d="M153-248C145-148 188 4 80 4 36 3 13-21 6-62l32-5c4 25 16 42 43 43 27 0 39-20 39-49v-147H72v-28h81" id="W"/><g id="l"><use transform="matrix(0.05,0,0,0.05,0,0)" xlink:href="#V"/><use transform="matrix(0.05,0,0,0.05,12.950000000000001,0)" xlink:href="#u"/><use transform="matrix(0.05,0,0,0.05,22.950000000000003,0)" xlink:href="#A"/><use transform="matrix(0.05,0,0,0.05,32.95,0)" xlink:href="#F"/><use transform="matrix(0.05,0,0,0.05,42.95,0)" xlink:href="#W"/><use transform="matrix(0.05,0,0,0.05,51.95,0)" xlink:href="#I"/></g><path fill="#fff" d="M108 0H70L1-190h34L89-25l56-165h34" id="X"/><g id="m"><use transform="matrix(0.05,0,0,0.05,0,0)" xlink:href="#I"/><use transform="matrix(0.05,0,0,0.05,12,0)" xlink:href="#F"/><use transform="matrix(0.05,0,0,0.05,22,0)" xlink:href="#B"/><use transform="matrix(0.05,0,0,0.05,27.950000000000003,0)" xlink:href="#X"/><use transform="matrix(0.05,0,0,0.05,36.95,0)" xlink:href="#F"/><use transform="matrix(0.05,0,0,0.05,46.95,0)" xlink:href="#B"/></g><path fill="#fff" d="M233-177c-1 41-23 64-60 70L243 0h-38l-65-103H63V0H30v-248c88 3 205-21 203 71zM63-129c60-2 137 13 137-47 0-61-80-42-137-45v92" id="Y"/><g id="n"><use transform="matrix(0.05,0,0,0.05,0,0)" xlink:href="#Y"/><use transform="matrix(0.05,0,0,0.05,12.950000000000001,0)" xlink:href="#M"/><use transform="matrix(0.05,0,0,0.05,22.950000000000003,0)" xlink:href="#J"/><use transform="matrix(0.05,0,0,0.05,31.950000000000003,0)" xlink:href="#D"/><use transform="matrix(0.05,0,0,0.05,41.95,0)" xlink:href="#U"/><use transform="matrix(0.05,0,0,0.05,51.95,0)" xlink:href="#F"/><use transform="matrix(0.05,0,0,0.05,61.95,0)" xlink:href="#B"/><use transform="matrix(0.05,0,0,0.05,67.9,0)" xlink:href="#B"/><use transform="matrix(0.05,0,0,0.05,73.85000000000001,0)" xlink:href="#P"/></g><g id="o"><use transform="matrix(0.05,0,0,0.05,0,0)" xlink:href="#Q"/><use transform="matrix(0.05,0,0,0.05,12,0)" xlink:href="#C"/></g><g id="p"><use transform="matrix(0.05,0,0,0.05,0,0)" xlink:href="#Q"/><use transform="matrix(0.05,0,0,0.05,12,0)" xlink:href="#P"/><use transform="matrix(0.05,0,0,0.05,21,0)" xlink:href="#H"/><use transform="matrix(0.05,0,0,0.05,26,0)" xlink:href="#G"/><use transform="matrix(0.05,0,0,0.05,36,0)" xlink:href="#u"/><use transform="matrix(0.05,0,0,0.05,46,0)" xlink:href="#v"/></g><path fill="#fff" d="M96-169c-40 0-48 33-48 73s9 75 48 75c24 0 41-14 43-38l32 2c-6 37-31 61-74 61-59 0-76-41-82-99-10-93 101-131 147-64 4 7 5 14 7 22l-32 3c-4-21-16-35-41-35" id="Z"/><g id="q"><use transform="matrix(0.05,0,0,0.05,0,0)" xlink:href="#I"/><use transform="matrix(0.05,0,0,0.05,12,0)" xlink:href="#Z"/><use transform="matrix(0.05,0,0,0.05,21,0)" xlink:href="#B"/><use transform="matrix(0.05,0,0,0.05,26.950000000000003,0)" xlink:href="#C"/><use transform="matrix(0.05,0,0,0.05,30.899999999999995,0)" xlink:href="#D"/><use transform="matrix(0.05,0,0,0.05,40.9,0)" xlink:href="#H"/></g><g id="r"><use transform="matrix(0.05,0,0,0.05,0,0)" xlink:href="#T"/><use transform="matrix(0.05,0,0,0.05,10.950000000000001,0)" xlink:href="#C"/><use transform="matrix(0.05,0,0,0.05,14.9,0)" xlink:href="#B"/><use transform="matrix(0.05,0,0,0.05,20.85,0)" xlink:href="#F"/><use transform="matrix(0.05,0,0,0.05,30.85,0)" xlink:href="#U"/><use transform="matrix(0.05,0,0,0.05,40.85,0)" xlink:href="#M"/><use transform="matrix(0.05,0,0,0.05,50.85,0)" xlink:href="#J"/><use transform="matrix(0.05,0,0,0.05,59.85,0)" xlink:href="#F"/></g><g id="s"><use transform="matrix(0.05,0,0,0.05,0,0)" xlink:href="#z"/><use transform="matrix(0.05,0,0,0.05,12,0)" xlink:href="#N"/><use transform="matrix(0.05,0,0,0.05,22,0)" xlink:href="#H"/><use transform="matrix(0.05,0,0,0.05,27,0)" xlink:href="#G"/><use transform="matrix(0.05,0,0,0.05,37,0)" xlink:href="#F"/><use transform="matrix(0.05,0,0,0.05,47,0)" xlink:href="#v"/><use transform="matrix(0.05,0,0,0.05,57,0)" xlink:href="#H"/><use transform="matrix(0.05,0,0,0.05,62,0)" xlink:href="#C"/><use transform="matrix(0.05,0,0,0.05,65.95,0)" xlink:href="#Z"/><use transform="matrix(0.05,0,0,0.05,74.95,0)" xlink:href="#M"/><use transform="matrix(0.05,0,0,0.05,84.95,0)" xlink:href="#H"/><use transform="matrix(0.05,0,0,0.05,89.95,0)" xlink:href="#C"/><use transform="matrix(0.05,0,0,0.05,93.9,0)" xlink:href="#u"/><use transform="matrix(0.05,0,0,0.05,103.9,0)" xlink:href="#v"/></g></defs></g></svg>